<svg width="116" height="116" viewBox="0 0 116 116" fill="none" xmlns="http://www.w3.org/2000/svg">
<path d="M76.125 9.6665C79.0092 9.6665 81.7753 10.8123 83.8148 12.8517C85.8542 14.8912 87 17.6573 87 20.5415V95.4582C87 98.3424 85.8542 101.108 83.8148 103.148C81.7753 105.187 79.0092 106.333 76.125 106.333H39.875C36.9908 106.333 34.2247 105.187 32.1852 103.148C30.1458 101.108 29 98.3424 29 95.4582V20.5415C29 17.6573 30.1458 14.8912 32.1852 12.8517C34.2247 10.8123 36.9908 9.6665 39.875 9.6665H76.125Z" fill="#474747"/>
<path d="M47.98 53.28H46.12L46.52 56.2L44.18 54.4L43.26 56.04L45.98 57.02L43.26 58.04L44.22 59.74L46.5 57.9L46.12 60.8H47.96L47.54 57.9L49.82 59.7L50.74 58.06L48 57.04L50.74 56.02L49.84 54.42L47.54 56.2L47.98 53.28ZM58.0581 53.28H56.1981L56.5981 56.2L54.2581 54.4L53.3381 56.04L56.0581 57.02L53.3381 58.04L54.2981 59.74L56.5781 57.9L56.1981 60.8H58.0381L57.6181 57.9L59.8981 59.7L60.8181 58.06L58.0781 57.04L60.8181 56.02L59.9181 54.42L57.6181 56.2L58.0581 53.28ZM68.1363 53.28H66.2763L66.6763 56.2L64.3363 54.4L63.4163 56.04L66.1363 57.02L63.4163 58.04L64.3763 59.74L66.6563 57.9L66.2763 60.8H68.1163L67.6963 57.9L69.9763 59.7L70.8963 58.06L68.1563 57.04L70.8963 56.02L69.9963 54.42L67.6963 56.2L68.1363 53.28Z" fill="white"/>
</svg>
